<svg fill="none" xmlns="http://www.w3.org/2000/svg" viewBox="0 0 512 512"><path d="M123.448 109.395c2.329-1.812 4.283-3.88 5.858-6.205 6.47-1.568 12.181-3.782 17.127-6.645a143.608 143.608 0 0014.891-9.405 170.598 170.598 0 0114.411-9.348c4.9-2.837 10.582-5.034 17.054-6.587l.151-.036.104-.116c2.3-2.555 5.115-4.733 8.452-6.531a375.285 375.285 0 0110.52-5.065c3.658-1.568 7.057-3.267 10.197-5.099 3.251-1.752 5.917-4.094 7.994-7.027.747.833 1.623 1.433 2.63 1.789 1.207.426 2.567.488 4.065.216l.021-.004.021-.006a148.713 148.713 0 007.801-2.339c1.441-.233 2.585.018 3.486.694a13.106 13.106 0 012.635 2.635l.042.057.058.043c1.043.782 1.855 1.327 2.42 1.61l.032.015.033.012c.632.21 1.213-.04 1.684-.512.398-.398.768-.994 1.12-1.755.316.058.568.134.762.222.264.118.393.245.455.353.109.19.129.579-.372 1.33l-.018.026-.014.028-1.562 3.125-.457.915 1.002-.201c2.478-.496 4.379.006 5.799 1.426l.029.03.034.023c1.887 1.349 4.657 2.268 8.255 2.798.559.578.891 1.066 1.04 1.463.15.402.108.683-.046.914-.585.879-.988 2.274-1.251 4.113l-.06.424.409.125c9.299 2.841 15.129 7.327 17.653 13.386l.003.007c2.553 5.87 2.814 12.126.763 18.792-2.055 6.42-5.913 12.473-11.595 18.155-5.413 5.413-11.457 9.01-18.134 10.808a664.233 664.233 0 00-22.67 6.254l-.005.001a258.587 258.587 0 00-19.961 7.045l-.006.003a118.227 118.227 0 00-18.042 9.413c-5.466 3.383-10.288 7.414-14.465 12.092-7.276 2.091-13.912 4.96-19.905 8.608v-.001l-.008.006a148.407 148.407 0 00-16.462 12.15h0l-.009.008a245 245 0 00-14.479 14.087l-.004.005-.018.017-.028.028-.027.027-.028.028-.027.027-.027.028-.028.027-.027.028-.028.027-.027.028-.028.027-.027.028-.028.027-.027.027-.028.028-.027.027-.028.028-.027.027-.028.028-.027.027-.027.028-.028.027-.027.028-.028.027-.027.028-.028.027-.027.028-.028.027-.027.027-.028.028-.027.027-.028.028-.027.027-.028.028-.027.027-.027.028-.028.027-.027.028-.028.027-.027.028-.028.027-.027.028-.028.027-.027.027-.028.028-.027.027-.028.028-.027.027-.028.028-.027.027-.027.028-.028.027-.027.028-.028.027-.027.028-.028.027-.027.028-.028.027-.027.027-.028.028-.027.027-.028.028-.027.027-.027.028-.028.027-.027.028-.028.027-.027.028-.028.027-.027.028-.028.027-.027.027-.028.028-.027.027-.028.028-.027.027-.028.028-.027.027-.027.028-.028.027-.027.028-.028.027-.027.028-.028.027-.027.028-.028.027-.027.027-.028.028-.027.027-.028.028-.027.027-.028.028-.027.027-.027.028-.028.027-.027.028-.028.027-.027.028-.028.027-.027.028-.028.027-.027.027-.028.028-.027.027-.028.028-.027.027-.028.028-.027.027-.027.028-.028.027-.027.028-.028.027-.027.028-.028.027-.027.028-.028.027-.027.027-.028.028-.027.027-.028.028-.027.027-.028.028-.027.027-.027.028-.028.027-.027.028-.028.027-.027.028-.028.027-.027.028-.028.027-.027.027-.028.028-.027.027-.028.028-.027.027-.027.028-.028.027-.027.028-.028.027-.027.028-.028.027-.027.028-.028.027-.027.027-.028.028-.027.027-.028.028-.027.027-.028.028-.027.027-.027.028-.028.027-.027.028-.028.027-.027.028-.028.027-.027.028-.028.027-.027.027-.028.028-.027.027-.028.028-.027.027-.028.028-.027.027-.027.028-.028.027-.027.028-.028.027-.027.028-.028.027-.027.028-.028.027-.027.027-.028.028-.027.027-.028.028-.027.027-.028.028-.027.027-.027.028-.028.027-.027.028-.028.027-.027.028-.028.027-.027.028-.028.027-.027.027-.028.028-.027.027-.028.028-.027.027-.028.028-.027.027-.027.028-.028.027-.027.028-.028.027-.027.028-.028.027-.027.028-.028.027-.027.027-.028.028-.027.027-.028.028-.027.027-.028.028-.027.027-.027.028-.028.027-.027.028-.028.027-.027.028-.028.027-.027.028-.028.027-.027.027-.028.028-.027.027-.028.028-.027.027-.027.028-.028.027-.027.028-.028.027-.027.028-.028.027-.027.028-.028.027-.027.027-.028.028-.027.027-.028.028-.027.027-.028.028-.027.027-.027.028-.028.027-.027.028-.028.027-.027.028-.028.027-.027.028-.028.027-.027.027-.028.028-.027.027-.028.028-.027.027-.028.028-.027.027-.027.028-.028.027-.027.028-.028.027-.027.028-.028.027-.027.028-.028.027-.027.027-.028.028-.027.027-.028.028-.027.027-.028.028-.027.027-.027.028-.028.027-.027.028-.028.027-.027.028-.028.027-.027.028-.028.027-.027.027-.028.028-.027.027-.028.028-.027.027-.028.028-.027.027-.027.028-.028.027-.027.028-.028.027-.027.028-.028.027-.027.028-.028.027-.027.027-.028.028-.027.027-.028.028-.027.027-.027.028-.028.027-.027.028-.028.027-.027.028-.028.027-.027.028-.028.027-.027.027-.028.028-.027.027-.028.028-.027.027-.028.028-.027.027-.027.028-.028.027-.027.028-.028.027-.027.028-.028.027-.027.028-.028.027-.027.027-.028.028-.027.027-.028.028-.027.027-.028.028-.027.027-.027.028-.028.027-.027.028-.028.027-.027.028-.028.027-.027.028-.028.027-.027.027-.028.028-.027.027-.028.028-.027.027-.028.028-.027.027-.027.028-.028.027-.027.028-.028.027-.027.028-.028.027-.027.028-.028.027-.027.027-.028.028-.027.027-.028.028-.027.027-.028.028-.027.027-.027.028-.028.027-.027.028-.028.027-.027.028-.028.027-.027.028-.028.027-.027.027-.028.028-.027.027-.028.028-.027.027-.027.028-.028.027-.027.028-.028.027-.027.028-.028.027-.027.028-.028.027-.027.027-.028.028-.027.027-.028.028-.027.027-.028.028-.027.027-.027.028-.028.027-.027.028-.028.027-.027.028-.028.027-.027.028-.028.027-.027.027-.028.028-.027.027-.028.028-.027.027-.028.028-.027.027-.027.028-.028.027-.027.028-.028.027-.027.028-.028.027-.027.028-.028.027-.027.027-.028.028-.027.027-.028.028-.027.027-.028.028-.027.027-.027.028-.028.027-.027.028-.028.027-.027.028-.028.027-.027.028-.028.027-.027.027-.028.028-.027.027-.028.028-.027.027-.028.028-.027.027-.027.028-.028.027-.027.028-.028.027-.027.028-.028.027-.027.028-.028.027-.027.027-.028.028-.027.027-.028.028-.027.027-.028.028-.027.027-.027.028-.028.027-.027.028-.028.027-.027.028-.028.027-.027.028-.028.027-.027.027-.028.028-.027.027-.028.028-.027.027-.027.028-.028.027-.027.028-.028.027-.027.028-.028.027-.027.028-.028.027-.027.027-.028.028-.027.027-.028.028-.027.027-.028.028-.027.027-.027.028-.028.027-.027.028-.028.027-.027.028-.028.027-.027.028-.028.027-.027.027-.028.028-.027.027-.028.028-.027.027-.028.028-.027.027-.027.028-.028.027-.027.028-.028.027-.027.028-.028.027-.027.028-.028.027-.027.027-.028.028-.027.027-.028.028-.027.027-.028.028-.027.027-.027.028-.028.027-.027.028-.028.027-.027.028-.028.027-.027.028-.028.027-.027.027-.147.147v.207c0 4.38-.775 7.652-2.259 9.879a118.656 118.656 0 01-5.057 7.002l-.124.159.021.2c.525 4.986 1.576 9.333 3.163 13.035l.009.021.01.019a390.585 390.585 0 015.462 10.534l.097.193.207.062c20.871 6.261 42.913 10.174 66.125 11.739h.006a1577.95 1577.95 0 0069.307 2.342 84.551 84.551 0 007.711 8.84l.016.016.018.015c3.103 2.586 5.814 5.298 8.136 8.136l.008.01.009.009c2.554 2.81 4.473 6.134 5.755 9.978l.006.02.009.019c1.499 3.5 1.9 7.773 1.161 12.848-4.38 4.37-9.143 8.614-14.29 12.732l-.005.005-7.801 5.85-7.702 5.777c-2.278.241-5.064.237-8.366-.017-3.139-.261-6.538-.392-10.194-.392-3.406 0-6.94.262-10.601.784a31.991 31.991 0 00-9.803 2.338c-16.343-.525-33.076-2.473-50.2-5.846-17.117-3.631-32.938-7.908-47.464-12.83a103.062 103.062 0 00-8.93-9.307c-3.18-3.177-7.398-5.418-12.625-6.739-7.458-5.676-13.637-12.764-18.535-21.269-4.668-8.559-8.429-17.637-11.283-27.236-2.596-9.605-4.413-19.47-5.452-29.595-.777-10.372-1.038-20.223-.781-29.556 2.33-6.973 5.172-13.297 8.526-18.974h0l.005-.008c3.373-5.967 7.134-11.544 11.283-16.731h0l.008-.009c4.156-5.456 8.442-10.52 12.856-15.194a709.14 709.14 0 0013.529-14.684 7.67 7.67 0 013.819 1.097l.52.312.207-.569c1.018-2.799 2.541-5.21 4.571-7.24a43.106 43.106 0 016.565-5.406l.015-.01.014-.011a118.199 118.199 0 017.002-5.057l.015-.01.015-.011z" fill="#FFCE83" stroke="#000"/><path d="M229.713 423.323l-.036-.072-.058-.058a17.683 17.683 0 01-2.649-3.402c-.754-1.513-1.391-3.419-1.904-5.728l-.026-.117-.076-.092c-3.607-4.381-6.445-9.408-8.51-15.087a82.041 82.041 0 01-4.271-17.471 89.851 89.851 0 01-.388-18.645c.519-6.223 1.425-12.052 2.719-17.49a76.1 76.1 0 001.959-8.224c1.3-4.94 2.6-9.749 3.899-14.428l.002-.007c1.288-4.895 3.213-8.86 5.76-11.916l.184-.221-.098-.27c-.993-2.731-.88-5.73.387-9.025a172.15 172.15 0 013.878-9.311c.516-.775.911-1.434 1.181-1.973l.016-.032.011-.033c.256-.768.508-1.395.754-1.888l.015-.03.011-.031c3.124-9.113 6.119-17.836 8.983-26.168A9688.038 9688.038 0 01250.438 237l.001-.001a2097.46 2097.46 0 0014.846-42.194c4.935-13.767 9.352-28.437 13.251-44.011 2.001-1.487 3.728-2.459 5.185-2.945l.033-.011.032-.016a14.803 14.803 0 011.888-.754c.689-.23 1.505-.354 2.454-.364 5.469 2.856 11.835 5.58 19.094 8.173l.01.004.01.003c7.488 2.323 13.858 3.509 19.1 3.537l6.474 5.713c3.352 3.871 6.187 7.998 8.508 12.381l.008.016.01.015c2.505 4.01 3.295 9.309 2.29 15.956-.749 1.117-1.429 2.008-2.041 2.681-.633.697-1.171 1.134-1.611 1.354l-.203.102-.058.219c-1.558 5.973-3.244 11.291-5.058 15.956a639.428 639.428 0 01-5.462 12.874 322.84 322.84 0 00-5.868 14.084c-1.825 4.694-3.387 10.41-4.688 17.144-1.529 1.798-2.582 3.375-3.123 4.726l-.017.043-.009.045a21.781 21.781 0 01-1.146 3.819l-.005.013-.005.014a65.356 65.356 0 01-1.932 5.026c-.746 1.486-1.869 2.862-3.382 4.123l-.151.126-.025.194c-1.038 8.047-2.593 14.641-4.654 19.797l-.002.004-3.122 7.413-3.125 7.422-.003.008a580.559 580.559 0 00-10.164 27.365c-3.144 8.909-4.974 19.115-5.496 30.611l-.031.67.652-.162c3.094-.774 5.917-1.157 8.472-1.157 3.333 0 6.535.512 9.608 1.536l.196.066.185-.093c9.317-4.658 19.413-7.507 30.292-8.543a482.043 482.043 0 0133.163-1.951c9.054 0 17.471-.385 25.249-1.156a67.798 67.798 0 003.096 2.059c.846.52 1.508.874 1.959 1.025l.077.025h6.331c.705 0 1.661.114 2.88.352 3.634 3.617 7.161 6.226 10.583 7.805l.014.007.016.006a256.467 256.467 0 0010.948 3.91 110.134 110.134 0 019.711 4.274l.021.011.023.008c3.282 1.263 6.444 3.023 9.487 5.284l3.481 19.727.02.114.068.093c1.033 1.421 1.761 2.596 2.197 3.531.449.961.542 1.571.457 1.913l-.015.06v.062c0 1.995-.498 3.72-1.479 5.191l-.107.162.029.191.71 4.612c-2.283.495-4.203 1.021-5.756 1.58-1.636.589-2.897 1.226-3.743 1.925-1.555 1.039-3.223 2.447-5.004 4.216a89.738 89.738 0 01-7.978.373c-5.209 0-10.542.774-15.997 2.318-7.833-2.85-16.435-4.271-25.8-4.271-3.658 0-7.445.13-11.362.391h-.002c-3.657.262-7.313.653-10.97 1.176h-.002l-5.855.781-5.843.779c-3.89.259-7.78.388-11.669.388h-.042l-.04.007c-3.126.521-5.346.913-6.657 1.175a22.727 22.727 0 00-3.978 1.191c-8.842 2.861-18.465 5.721-28.869 8.583h-.003c-10.113 2.853-20.354 4.279-30.724 4.279-15.229 0-27.447-3.859-36.7-11.529-1.017-2.282-1.797-3.846-2.337-4.655a25.093 25.093 0 01-1.531-2.681z" fill="#ADE4FF" stroke="#000"/></svg>