<svg fill="none" xmlns="http://www.w3.org/2000/svg" viewBox="0 0 15 12"><path d="M14.4 2.093H7.669L5.469.04A.155.155 0 005.366 0H.6C.268 0 0 .262 0 .585v10.83c0 .323.268.585.6.585h13.8c.332 0 .6-.262.6-.585V2.678a.592.592 0 00-.6-.585zM9.75 7.189c0 .07-.064.128-.14.128H8.024V8.87c0 .071-.06.13-.131.13h-.788a.132.132 0 01-.131-.13V7.317H5.391c-.077 0-.141-.058-.141-.128v-.768c0-.07.064-.128.14-.128h1.585V4.74c0-.072.06-.13.131-.13h.788c.071 0 .131.058.131.13v1.553h1.584c.077 0 .141.058.141.128v.768z" fill="#000"/></svg>