<svg fill="none" xmlns="http://www.w3.org/2000/svg" viewBox="0 0 13 14"><path d="M5.84 8.063H4.085a.133.133 0 00-.092.036.123.123 0 00-.038.088v.75c0 .034.014.065.038.089a.133.133 0 00.092.037H5.84v1.687c0 .033.014.065.038.088a.133.133 0 00.092.037h.78a.133.133 0 00.092-.037.123.123 0 00.038-.088V9.062h1.755a.133.133 0 00.092-.036.123.123 0 00.038-.088v-.75a.123.123 0 00-.038-.089.133.133 0 00-.092-.037H6.88V6.375a.123.123 0 00-.038-.088.133.133 0 00-.092-.037h-.78a.133.133 0 00-.092.037.123.123 0 00-.038.088v1.688zm6.087-4.552a.49.49 0 01.153.353V13.5a.51.51 0 01-.52.5H1.16a.51.51 0 01-.52-.5V.5c0-.277.232-.5.52-.5h6.901c.139 0 .272.053.37.147l3.496 3.364zm-1.046.583l-3.058-2.94v2.94h3.058z" fill="#000"/></svg>