<svg fill="none" xmlns="http://www.w3.org/2000/svg" viewBox="0 0 21 21"><path opacity=".2" d="M10.5 1.125A9.375 9.375 0 004.23 17.47a7.031 7.031 0 016.27-3.845 3.906 3.906 0 110-7.813 3.906 3.906 0 010 7.813 7.031 7.031 0 016.27 3.845A9.375 9.375 0 0010.5 1.125z" fill="#000"/><path d="M20.656 10.5a10.156 10.156 0 10-17.01 7.488.781.781 0 00.13.117 10.135 10.135 0 0013.448 0 .774.774 0 00.129-.116 10.132 10.132 0 003.303-7.489zm-18.75 0a8.594 8.594 0 1115.016 5.704 7.77 7.77 0 00-3.521-2.807 4.687 4.687 0 10-5.802 0 7.77 7.77 0 00-3.52 2.807A8.558 8.558 0 011.905 10.5zm5.469-.781a3.125 3.125 0 116.25 0 3.125 3.125 0 01-6.25 0zm-2.14 7.568a6.252 6.252 0 0110.53 0 8.575 8.575 0 01-10.53 0z" fill="#000"/></svg>