<svg fill="none" xmlns="http://www.w3.org/2000/svg" viewBox="0 0 34 34"><path opacity=".2" d="M17 32c8.285 0 15-6.716 15-15 0-8.284-6.715-15-15-15C8.716 2 2 8.716 2 17c0 8.284 6.716 15 15 15z" fill="#000"/><path d="M17 .75A16.25 16.25 0 1033.25 17 16.269 16.269 0 0017 .75zm0 30A13.75 13.75 0 1130.75 17 13.766 13.766 0 0117 30.75zm1.875-5.625a1.875 1.875 0 11-3.75 0 1.875 1.875 0 013.75 0zm3.75-11.25a5.635 5.635 0 01-4.375 5.486v.14a1.25 1.25 0 01-2.5 0v-1.25A1.25 1.25 0 0117 17a3.125 3.125 0 10-3.125-3.125 1.25 1.25 0 01-2.5 0 5.625 5.625 0 1111.25 0z" fill="#000"/></svg>