<svg viewBox="0 0 128 128" xmlns="http://www.w3.org/2000/svg"><circle cx="64" cy="64" fill="#9bd2ee" r="64" data-name="Circle Grid"/><path d="M42.813 58.055h1.973a2.27 2.27 0 002.125-1.439c.749-1.942 3.246-5.827 11.508-11.518a29.666 29.666 0 0012.539-19.833 5.115 5.115 0 015.051-4.365h.05a5.171 5.171 0 015.168 4.948c.246 5.674-.336 14.928-5.818 20.664h23.819A5.772 5.772 0 01105 52.283a5.772 5.772 0 01-5.772 5.772l-1.668.1a.239.239 0 00-.224.238.239.239 0 00.239.239h.24a5.711 5.711 0 015.528 7.265 6.172 6.172 0 01-4.756 4.031s3.976 1.2 3.744 6.413c-.159 3.585-5.481 4.217-5.481 4.217s7.761 9.411-6.306 13.291-28.232 1.5-28.232 1.5l-18.917-1.98z" fill="#fed19a"/><path d="M38.3 56.856h6.152v37.456H38.3z" fill="#fff"/><rect fill="#575b6d" height="46.411" rx="2" width="16.27" x="23" y="52.69"/><circle cx="31.135" cy="61.302" fill="#eeefee" r="3.297"/></svg>