<svg fill="none" xmlns="http://www.w3.org/2000/svg" viewBox="0 0 195 40"><path d="M54.075 28.39A4.605 4.605 0 0152.863 27a9.098 9.098 0 01-.732-1.77 12.07 12.07 0 01-.354-1.921 18.76 18.76 0 01-.05-1.921c.151-.455.336-.868.555-1.239.22-.387.463-.75.733-1.087.27-.353.547-.682.833-.985.303-.32.598-.64.884-.96a.53.53 0 01.278.075c.067-.185.168-.345.303-.48.135-.135.278-.253.43-.354.151-.118.302-.227.454-.329.152-.117.278-.252.379-.404a4.127 4.127 0 001.111-.43c.337-.185.657-.387.96-.606.303-.22.615-.422.934-.607a4.13 4.13 0 011.112-.43c.151-.168.337-.311.556-.43.235-.117.462-.227.681-.328a5.75 5.75 0 00.657-.329c.219-.117.396-.277.53-.48.102.135.245.186.43.152.185-.05.354-.101.505-.152a.317.317 0 01.253.05.88.88 0 01.176.178c.068.05.118.084.152.1.05.018.101-.033.151-.15.135.016.169.075.101.176l-.1.202c.168-.033.303 0 .404.101.118.085.294.144.53.177.084.085.11.152.076.203a.641.641 0 00-.076.252c.606.186.993.48 1.162.885.168.388.185.8.05 1.239-.134.42-.387.817-.757 1.188-.354.353-.75.59-1.188.707-.522.135-1.01.27-1.464.405-.438.134-.867.286-1.288.455a7.5 7.5 0 00-1.162.606c-.354.22-.665.48-.935.784-.471.135-.9.32-1.288.556a9.55 9.55 0 00-1.06.783c-.32.287-.632.59-.935.91l-.91.91c0 .287-.05.506-.151.657a7.69 7.69 0 01-.328.455c.033.32.1.599.202.834.117.22.235.447.353.683 1.347.404 2.77.657 4.269.758 1.515.084 3.014.135 4.495.152.152.202.32.396.506.581.202.169.378.346.53.531.168.185.295.404.379.657.1.236.126.522.076.86-.287.286-.598.564-.935.834l-1.01.758a3.043 3.043 0 01-.556 0 7.91 7.91 0 00-.657-.025c-.218 0-.446.016-.681.05a2.04 2.04 0 00-.632.152 20.15 20.15 0 01-3.258-.38 27.11 27.11 0 01-3.081-.833 6.642 6.642 0 00-.581-.607c-.202-.202-.472-.345-.809-.43zm26.395-.253c.033.438-.018.8-.152 1.086a2.17 2.17 0 01-.556.733 2.778 2.778 0 01-.808.48c-.303.119-.598.228-.884.33l-.404-.254a1.165 1.165 0 00-.43-.227c-.219-.404-.43-.758-.631-1.062a1.843 1.843 0 01-.278-1.086c0-.017.008-.11.025-.279.034-.168.068-.353.101-.556a4 4 0 00.101-.556 4.19 4.19 0 00.05-.303 5.561 5.561 0 00-1.212.253c-.42.135-.833.295-1.237.48-.387.185-.758.37-1.112.556-.336.185-.614.346-.833.48 0 .05-.034.177-.101.38a7.924 7.924 0 01-.252.606 4.41 4.41 0 01-.329.556c-.118.169-.236.253-.354.253a.64.64 0 00.076.152c.034.05.034.117 0 .202a3.085 3.085 0 00-.631.252 2.606 2.606 0 01-.581.279 1.69 1.69 0 01-.657.126c-.236 0-.513-.084-.833-.253a.311.311 0 00-.127-.253 1.069 1.069 0 00-.277-.202 1.326 1.326 0 00-.228-.151c-.067-.051-.1-.093-.1-.127-.085.017-.118-.042-.102-.177.017-.135.085-.168.202-.1-.185-.237-.303-.439-.353-.607-.034-.186-.127-.413-.278-.683a.543.543 0 00.101-.177 6.7 6.7 0 01.05-.227.321.321 0 01.076-.152c.034-.034.076-.025.126.025a.717.717 0 010-.379c.034-.1.068-.194.102-.278.033-.084.059-.168.075-.253.017-.084-.008-.177-.075-.278.269-.37.446-.766.53-1.188a8.39 8.39 0 00.151-1.188c.118-.117.22-.286.304-.505.1-.22.176-.438.227-.657.05-.236.067-.455.05-.657 0-.22-.025-.396-.075-.531.016-.084.11-.11.277-.076.102-.556.169-1.18.203-1.87.05-.708.126-1.374.227-1.997.1-.64.27-1.197.505-1.668a1.752 1.752 0 011.136-.96c.102.353.228.665.38.934.168.27.345.531.53.784.202.236.395.48.58.733.203.253.388.539.556.86a18.493 18.493 0 01-.303 2.401c-.067.438-.143.859-.227 1.263-.067.405-.135.75-.202 1.037.017.084.059.134.126.151.084.017.101.093.05.228.405-.102.826-.194 1.264-.278.437-.085.875-.177 1.313-.278.438-.101.859-.211 1.263-.329.42-.135.808-.295 1.162-.48.084-.657.193-1.315.328-1.972a5.81 5.81 0 00.05-2.022.746.746 0 00.203-.253.386.386 0 01.252-.202 3.329 3.329 0 01-.1-1.01c.016-.355.075-.692.176-1.012.118-.32.278-.59.48-.809.219-.236.48-.387.783-.455.185.27.345.565.48.885.134.303.269.615.404.935.151.303.303.598.454.885.169.27.38.505.632.708.05.488.084.994.1 1.516.034.523.06 1.053.077 1.593-.135.64-.287 1.263-.455 1.87-.152.59-.261 1.222-.328 1.896-.118.134-.21.286-.278.455-.068.168-.135.345-.202.53a6.648 6.648 0 01-.228.506 1.816 1.816 0 01-.303.404.985.985 0 01.026.582c-.034.168.016.379.151.632zm16.214-11.779a.759.759 0 010 .278.48.48 0 01-.025.152v.177c0 .05.017.134.05.252-.353.573-.766.97-1.237 1.188a6.688 6.688 0 01-1.49.455c-.54.085-1.095.177-1.667.278a4.912 4.912 0 00-1.667.657.758.758 0 00-.606 0c-.169.085-.421.11-.758.076a.951.951 0 01-.379.228 4.56 4.56 0 00-.455.126.934.934 0 01.076.48.84.84 0 00.076.38c.59.05 1.237.042 1.945-.026.724-.067 1.431-.11 2.121-.126.017.084.009.143-.025.177-.034.017-.042.059-.025.126a2.1 2.1 0 01.353.329l.354.354c.118.118.236.219.354.303a.814.814 0 00.454.076c.068.135.11.286.127.455a.805.805 0 01-.051.48c-.27.185-.539.38-.808.581-.27.186-.556.354-.859.506a5.16 5.16 0 01-.934.379c-.32.084-.682.118-1.087.101h-.202c-.033 0-.084-.025-.151-.076-.135.084-.329.11-.581.076-.236-.034-.421-.008-.556.076a1.425 1.425 0 00-.682-.101c-.252 0-.48-.034-.682-.101a8.832 8.832 0 00-.732 1.137 9.983 9.983 0 00-.581 1.29c.573.084 1.044.117 1.414.1.388-.017.75-.042 1.087-.076.336-.05.681-.092 1.035-.126.354-.05.8-.067 1.339-.05a3.164 3.164 0 011.187-.354c.471-.068.9-.169 1.288-.304a.79.79 0 01.354.278c.1.118.193.236.277.354a4.5 4.5 0 00.303.278.482.482 0 00.38.101.459.459 0 01.126.253c.033.084.058.169.075.253a.9.9 0 00.076.227c.05.051.126.068.227.051-.252.556-.547.986-.884 1.289a3.35 3.35 0 01-1.11.657c-.422.152-.893.27-1.415.354-.505.084-1.07.185-1.693.303a.562.562 0 01-.378-.025 1.119 1.119 0 00-.354-.05c-.387.084-.85.16-1.39.227-.538.067-1.085.093-1.64.076a6.97 6.97 0 01-1.592-.228c-.505-.118-.918-.337-1.238-.657a.923.923 0 01-.278-.404c-.033-.169-.143-.295-.328-.38a6.904 6.904 0 00-.1-.732c-.051-.27-.102-.548-.152-.834a20.06 20.06 0 01-.127-.885c-.017-.287 0-.548.05-.784.051-.252.152-.48.304-.682a.742.742 0 00.177-.657c.084-.017.134-.06.151-.127.017-.084.084-.118.202-.1.101-.304.21-.59.329-.86.118-.27.235-.53.353-.784.135-.252.261-.505.38-.758.134-.27.26-.564.378-.885a2.294 2.294 0 01-.53-.707 5.069 5.069 0 01-.228-.784c-.05-.27-.092-.54-.126-.809a5.209 5.209 0 00-.177-.86 2.08 2.08 0 01.606-.606c.253-.168.522-.303.809-.404a6.91 6.91 0 01.934-.253c.337-.067.69-.143 1.06-.227.674-.22 1.272-.388 1.794-.506.539-.118 1.06-.21 1.566-.278a41.63 41.63 0 011.617-.227 28.693 28.693 0 001.894-.304c.151.152.294.228.43.228.066-.152.142-.194.227-.127.1.051.143 0 .126-.151.168.286.379.53.631.733.27.185.564.345.884.48z" fill="#000"/><path d="M106.332 30.639a7.143 7.143 0 01-1.01-.026 2.148 2.148 0 00-1.086.178 17.209 17.209 0 01-2.728-.33 19.289 19.289 0 01-2.55-.682 7.146 7.146 0 00-.506-.505 1.389 1.389 0 00-.682-.354 3.857 3.857 0 01-.985-1.163 7.685 7.685 0 01-.606-1.49 8.568 8.568 0 01-.303-1.593 12.952 12.952 0 01-.05-1.593c.252-.758.606-1.407 1.06-1.946.472-.556.952-1.104 1.44-1.643.219-.1.379-.202.48-.303.118-.118.236-.22.353-.303.135-.101.261-.194.38-.278a1.76 1.76 0 00.353-.354 3.24 3.24 0 00.909-.354c.27-.169.531-.337.783-.506.253-.185.514-.353.783-.505.269-.152.581-.27.935-.354.134-.152.294-.27.479-.354a8.73 8.73 0 01.556-.278c.202-.101.387-.202.556-.303.185-.101.328-.236.429-.405.084.135.202.186.354.152.151-.05.294-.101.429-.152.084-.017.152 0 .202.05.068.051.126.102.177.153.05.05.093.084.126.1.051 0 .093-.041.127-.126.084 0 .109.042.075.127a2.884 2.884 0 01-.075.177.373.373 0 01.328.1c.101.068.252.11.454.127.068.084.085.152.051.202-.034.034-.051.101-.051.203.506.151.826.395.96.733.135.32.143.657.026 1.01a2.528 2.528 0 01-.632.986c-.303.303-.631.506-.985.607a26.17 26.17 0 00-2.298.733c-.708.253-1.288.632-1.743 1.137a4.25 4.25 0 00-1.086.48 6.307 6.307 0 00-.884.658c-.27.236-.531.488-.783.758-.236.253-.488.506-.758.758.017.236-.025.422-.126.556a7.38 7.38 0 00-.253.38c.034.252.093.48.177.682.084.185.177.37.278.556 1.111.337 2.29.548 3.536.632 1.263.084 2.526.135 3.789.151.117.169.252.33.404.48.168.136.32.287.454.456.135.151.244.328.329.53.084.186.101.422.05.708a6.354 6.354 0 01-.783.708c-.286.202-.572.413-.859.632zm18.009-.961a14.54 14.54 0 01-2.147-.05 6.293 6.293 0 01-1.793-.48c-.034-.017-.068-.06-.101-.127a.615.615 0 00-.101-.152.673.673 0 00-.379-.05 1.12 1.12 0 01-.354-.05 7.466 7.466 0 01-.631-.38 95.845 95.845 0 01-.783-.556 19.8 19.8 0 01-.859-.707 4.99 4.99 0 01-.707-.759.24.24 0 00-.202-.1.92.92 0 01-.228-.077c-.488.304-.9.683-1.237 1.138a25.28 25.28 0 00-.96 1.39c-.303.472-.623.918-.96 1.34a3.206 3.206 0 01-1.288.96 1.01 1.01 0 01-.404-.076 1.32 1.32 0 01-.328-.202l-.303-.202a1.167 1.167 0 00-.329-.152 1.23 1.23 0 00-.126-.556 4.176 4.176 0 00-.227-.48 2.617 2.617 0 01-.152-.43.505.505 0 01.101-.43 2.27 2.27 0 00-.454-.328c.101-.101.143-.194.126-.278a.67.67 0 00-.051-.253 6.07 6.07 0 01-.101-.278.415.415 0 01.076-.303c.084 0 .185-.017.303-.05-.101-.136-.151-.212-.151-.228.016-.034 0-.076-.051-.127-.034-.1-.017-.16.051-.177l.202-.1c.067-.826.21-1.593.429-2.3.219-.709.463-1.391.732-2.048.27-.657.531-1.323.783-1.997.27-.674.489-1.399.657-2.174.185-.185.328-.404.429-.657l.354-.758c.135-.253.278-.497.429-.733a1.84 1.84 0 01.682-.607c.236.017.447.085.632.202.185.102.412.144.682.127.05.084.092.168.126.253.051.084.109.168.177.252l.379-.076c.185.152.345.346.48.582.151.219.252.455.303.708.05.252.042.497-.026.733-.067.219-.227.395-.479.53a.426.426 0 010 .203.224.224 0 01-.026.1.222.222 0 00-.025.102c0 .034.025.084.076.151-.337.253-.59.607-.758 1.062-.168.455-.261.86-.278 1.213.202-.202.421-.396.657-.581.253-.202.505-.396.758-.582.269-.185.522-.362.757-.53.253-.169.48-.337.682-.506.556-.505 1.086-.91 1.592-1.213a44.04 44.04 0 001.641-1.062c.135-.033.236-.033.303 0 .084.017.169.043.253.076 0-.1-.034-.16-.101-.177-.051-.017-.068-.084-.051-.202.253-.067.472-.143.657-.227.185-.101.387-.194.606-.278.152.151.295.311.43.48a.876.876 0 00.555.278c.084.185.185.329.303.43l.354.252c.118.085.219.186.303.304.101.118.16.303.177.556a11.12 11.12 0 01-.228.379 4.822 4.822 0 00-.202.48 9.056 9.056 0 01-1.035.809c-.337.236-.682.463-1.036.682-.353.22-.715.438-1.086.658-.37.219-.749.48-1.136.783a1.51 1.51 0 01-.329.329 18.1 18.1 0 00-.378.278 3.114 3.114 0 00-.379.278 1.12 1.12 0 00-.278.354.48.48 0 01-.152.025.475.475 0 00-.151.025.579.579 0 01-.253.278.485.485 0 00-.202.278c.253.54.581.952.985 1.239a4.23 4.23 0 001.364.632 8.259 8.259 0 001.642.202h1.843c.068-.017.093-.05.076-.101 0-.068.042-.093.127-.076.404.135.715.328.934.581.219.236.48.472.783.708-.034.64-.227 1.171-.581 1.592-.353.422-.825.759-1.414 1.011zm14.598-6.622c.253.034.43.093.531.177a.562.562 0 01.227.329.795.795 0 01.051.404 4.082 4.082 0 00-.026.455c-.421.286-1.002.489-1.742.607-.741.1-1.516.177-2.324.227-.808.034-1.591.05-2.349.05-.758 0-1.355.026-1.793.076a26.25 26.25 0 00-2.122.304c-.488.084-.825.168-1.01.253-.32-.017-.573-.076-.758-.177a1.625 1.625 0 01-.454-.354 2.546 2.546 0 01-.304-.506 6.409 6.409 0 00-.303-.581c.068-.135.085-.329.051-.582-.034-.252-.135-.446-.303-.58.134-.018.236-.11.303-.279.067-.185.067-.32 0-.404.269-.068.556-.11.859-.127.32-.033.631-.059.934-.075.303-.017.589-.043.859-.076.286-.05.53-.127.732-.228a145.66 145.66 0 002.602-.076c.909-.033 1.759-.067 2.551-.1a4.23 4.23 0 001.01.15c.387 0 .766.026 1.137.077.37.034.707.126 1.01.278.303.152.513.404.631.758zm4.067 6.597a1.133 1.133 0 01-.177-.227 1.607 1.607 0 01-.126-.38 3.323 3.323 0 01-.556-.985 5.355 5.355 0 01-.278-1.138 5.861 5.861 0 01-.025-1.213 7.73 7.73 0 01.177-1.137c.05-.169.092-.346.126-.531.084-.32.168-.632.253-.935.084-.32.21-.582.378-.784a.843.843 0 01.026-.607c.084-.219.168-.42.252-.606a1.21 1.21 0 00.076-.127.973.973 0 01.051-.126l.58-1.693.581-1.593c.337-.927.657-1.837.96-2.73.32-.893.606-1.845.859-2.856.135-.1.252-.168.353-.202a.985.985 0 01.127-.05.554.554 0 01.177-.026c.353.186.766.363 1.237.531.488.152.901.228 1.238.228l.429.379c.219.252.404.522.556.808.168.27.219.624.151 1.062-.101.152-.185.244-.252.278a9.43 9.43 0 01-.329 1.036 34.44 34.44 0 01-.353.834 21.16 21.16 0 00-.379.91 6.462 6.462 0 00-.303 1.113 1.152 1.152 0 00-.202.303 1.432 1.432 0 01-.076.253c-.034.1-.076.21-.126.328a.882.882 0 01-.228.278c-.067.523-.168.952-.303 1.29l-.404.96a37.26 37.26 0 00-.656 1.77c-.203.572-.32 1.23-.354 1.97.202-.05.387-.075.556-.075.218 0 .429.034.631.1a5.536 5.536 0 011.97-.555 31.21 31.21 0 012.147-.127c.589 0 1.137-.025 1.642-.075.168.118.277.185.328.202h.404c.051 0 .118.008.202.025.236.236.463.404.682.506.219.084.455.168.707.252.219.085.43.177.632.278.219.085.429.203.631.354l.227 1.29c.135.185.194.311.177.378a.618.618 0 01-.101.354l.051.329c-.32.067-.531.143-.632.227a2.23 2.23 0 00-.328.278 5.84 5.84 0 01-.53.026c-.337 0-.682.05-1.036.151a4.805 4.805 0 00-1.667-.278 10.06 10.06 0 00-1.44.101l-.757.102c-.253.016-.505.025-.758.025-.202.034-.345.059-.429.076a1.423 1.423 0 00-.253.076c-.572.185-1.195.37-1.869.555a7.313 7.313 0 01-1.995.279c-.994 0-1.794-.253-2.4-.759a2.47 2.47 0 00-.151-.303 1.503 1.503 0 01-.101-.177zm20.281-.834c.084.506.051.901-.101 1.188a1.304 1.304 0 01-.606.632 1.872 1.872 0 01-.884.253c-.337.016-.657 0-.96-.051a3.917 3.917 0 01-.454-.885 20.466 20.466 0 01-.379-1.087 40.16 40.16 0 01-.329-1.137c-.084-.37-.16-.7-.227-.986.084-.202.135-.43.152-.682.033-.27.05-.54.05-.809.017-.27.025-.54.025-.809.017-.286.042-.556.076-.809.118-.707.286-1.381.505-2.022.236-.64.421-1.305.556-1.996a.624.624 0 00-.051-.43.603.603 0 01-.025-.38c.017-.067.068-.109.152-.126a.23.23 0 00.151-.177c.051-.185.059-.337.026-.454-.017-.119.016-.262.101-.43.084-.135.185-.329.303-.581.134-.27.185-.548.151-.835.152-.1.295-.219.43-.354.134-.134.269-.252.404-.353.151-.118.311-.22.48-.304.185-.084.404-.126.656-.126.135.168.219.354.253.556.05.202.092.404.126.607.051.202.118.396.202.581a.911.911 0 00.43.404v.506c0 .202.008.404.025.607.017.185.05.362.101.53a.534.534 0 00.303.304 85.471 85.471 0 00-.859 2.4 24.044 24.044 0 00-.631 2.402 16.45 16.45 0 00-.329 2.401 11.08 11.08 0 00.177 2.452zm3.334-9.605a2.29 2.29 0 01.556-.91 4.3 4.3 0 01.859-.632c.319-.185.648-.337.985-.455.336-.118.656-.219.959-.303a28.648 28.648 0 012.147-.809c.775-.27 1.558-.505 2.349-.707a13.503 13.503 0 012.475-.38c.842-.067 1.726.034 2.652.304.051.168.127.328.228.48l.303.455c.118.152.219.303.303.455.084.135.134.278.151.43.169.151.303.32.404.505.101.169.118.396.051.683a9.897 9.897 0 01-.505.379 3.62 3.62 0 01-.505.278c-.623-.152-1.255-.202-1.895-.152-.639.05-1.212.093-1.717.126a.757.757 0 00-.556-.227 2.39 2.39 0 00-.656.101c-.219.067-.447.135-.682.202a1.34 1.34 0 01-.632.05 1.445 1.445 0 01-.631.279 32.38 32.38 0 01-.783.1c-.017.085 0 .144.05.178.051.017.059.067.026.152a.838.838 0 00.378.252l.506.152c.185.05.345.118.479.202a.545.545 0 01.278.354c.253 0 .472.059.657.177a1.593 1.593 0 01.707.986c.067.185.101.354.101.505.051.135.11.194.177.177.067-.017.143.017.227.101.051.22.177.447.379.683.202.219.362.463.48.733.034.42.059.8.076 1.137.017.32-.042.649-.177.986a5.41 5.41 0 01-1.061 1.668 8.197 8.197 0 01-1.515 1.314c-.556.371-1.154.691-1.793.96-.64.27-1.263.498-1.87.683a.409.409 0 00-.202 0c-.067.017-.084-.025-.05-.126a.969.969 0 01-.455.227 1.64 1.64 0 01-.505.026 6.95 6.95 0 01-.581-.026 1.836 1.836 0 00-.53.026 6.642 6.642 0 01-.329-.354 1.147 1.147 0 01-.202-.405c-.084 0-.126-.042-.126-.126.017-.084-.008-.126-.076-.126.101-.169.143-.262.127-.278 0-.034-.026-.06-.076-.076l-.101-.05c-.034-.034-.042-.077-.025-.127a.818.818 0 00.075-.455l-.05-.556a1.828 1.828 0 01.025-.531c.051-.168.177-.303.379-.404.572.067 1.111.05 1.616-.05a7.846 7.846 0 001.465-.481c.455-.202.884-.421 1.288-.657.421-.236.834-.447 1.238-.632a1.17 1.17 0 01.202-.38c.101-.1.202-.193.303-.277a2.16 2.16 0 00.278-.278.886.886 0 00.177-.38c.017-.117-.017-.185-.101-.202-.068-.034-.101-.1-.101-.202l-.278-.076a4.897 4.897 0 00-1.086-.455 6.918 6.918 0 01-1.036-.43c-.185.102-.362.127-.53.076a5.289 5.289 0 00-.606-.151 17.417 17.417 0 01-1.667-.177 6.051 6.051 0 01-1.516-.455.948.948 0 00-.126-.228c-.05-.067-.143-.084-.278-.05a7.487 7.487 0 00-.303-.38 3.873 3.873 0 01-.278-.429c.034-.202.059-.37.076-.506a.547.547 0 00-.151-.43c.067-.218.117-.395.151-.53a1.375 1.375 0 000-.53z" fill="#000"/><path d="M192.585 18.43a9.91 9.91 0 00-1.363.102c-.489.05-.969.11-1.44.177a23.967 23.967 0 01-1.819.202c-.117.37-.235.7-.353.986-.118.286-.244.564-.379.834-.135.286-.261.581-.379.884a20.63 20.63 0 00-.303.936c-.168.27-.312.522-.429.758a3.982 3.982 0 00-.253.758 2.766 2.766 0 00-.455.809c-.101.27-.176.505-.227.708l-.101.303c-.101.101-.16.185-.177.253a.34.34 0 01-.126.151 1.426 1.426 0 01-.177.556 1.43 1.43 0 00-.076.253.743.743 0 00-.025.152c0 .168-.042.278-.126.328a.763.763 0 010 .279l-.051.252c-.05.202-.067.363-.05.48.05.068.092.127.126.177a.38.38 0 01.101.203c.101.067.177.11.227.126.068.05.169.11.304.177l.227.253c.084.488.008.876-.227 1.162-.253.32-.682.48-1.289.48h-.303a.616.616 0 01-.151-.202c-.135-.05-.244-.092-.329-.126a.508.508 0 01-.227-.202 18.356 18.356 0 01-.53-.253l-.228-.126v-.304a1.856 1.856 0 01-.277-.505 6.545 6.545 0 01-.127-.556 3.037 3.037 0 00-.126-.43 1.117 1.117 0 00-.152-.354c-.033-.977.059-1.803.278-2.477.219-.674.447-1.323.682-1.946l.404-1.011a11.6 11.6 0 00.354-1.087l.227-.253c.118-.27.211-.488.278-.657l.253-.556c.05-.118.092-.227.126-.328.05-.118.093-.22.126-.304-.101 0-.193.009-.278.025-.084 0-.168.009-.252.026a8.742 8.742 0 00-.278.05h-.253a.88.88 0 01-.252-.025 1.444 1.444 0 01-.606.126h-.404a.228.228 0 00-.101-.025.911.911 0 00-.405.076h-.833a.41.41 0 00-.126.025h-.127a3.06 3.06 0 01-.378-.025 1.79 1.79 0 01-.43-.177c-.202-.27-.337-.413-.404-.43l-.227-.303a1.332 1.332 0 00-.076-.278 7.925 7.925 0 01-.101-.329 17.88 17.88 0 01-.202-.53 2.915 2.915 0 01-.076-.708.648.648 0 01.101-.303c.051-.068.093-.127.126-.177l.076-.38.329.026h.707c.539 0 1.086-.017 1.641-.05.556-.051 1.129-.102 1.718-.152l1.01-.102c.354-.033.716-.067 1.086-.1.068-.152.135-.296.202-.43l.253-.127c.303-.017.513.026.631.127.135.084.244.168.329.253l1.111-.102c.387-.05.775-.11 1.162-.177a59.33 59.33 0 011.717-.227 14.79 14.79 0 011.693-.101c.235 0 .463.008.681.025.219.017.421.042.607.076l.252.177c.051.101.118.194.202.278l.303.253c.202.185.404.404.607.657.202.253.277.623.227 1.112-.135.202-.236.32-.303.354l-.228.303-.252-.025a.741.741 0 00-.278.05 1.474 1.474 0 00-.253.076l-.202.101a4.861 4.861 0 01-.227.05h-.379a1.415 1.415 0 00-.278-.024z" fill="#000"/><path d="M20.336 4.14c-2.017 0-3.597 1.284-3.597 2.924s1.58 2.925 3.597 2.925 3.596-1.284 3.596-2.925c0-1.64-1.58-2.924-3.596-2.924zm0 3.777c-.86 0-1.526-.458-1.526-.853 0-.393.667-.852 1.526-.852s1.525.458 1.525.852c0 .395-.666.853-1.525.853zm7.994 2.493c-.963 0-1.96.445-2.734 1.22-.639.64-1.058 1.438-1.181 2.25-.139.915.118 1.776.705 2.364.478.478 1.144.742 1.875.742.963 0 1.96-.445 2.734-1.22.64-.64 1.059-1.438 1.181-2.25.14-.915-.118-1.776-.704-2.363-.479-.479-1.145-.742-1.875-.742zm.533 2.796c-.056.372-.274.77-.598 1.095-.378.378-.864.612-1.27.612-.126 0-.3-.023-.411-.135-.165-.165-.14-.466-.121-.587.056-.372.274-.771.598-1.095.377-.378.864-.613 1.27-.613.125 0 .299.024.41.136.165.165.14.465.122.587zM15.076 11.63c-.775-.775-1.772-1.22-2.735-1.22-.73 0-1.397.264-1.875.743-.587.587-.843 1.448-.705 2.363.123.812.543 1.611 1.181 2.25.775.775 1.771 1.22 2.735 1.22.73 0 1.396-.264 1.875-.743.587-.587.843-1.448.705-2.363-.123-.811-.542-1.61-1.181-2.25zm-1.399 3.283c-.406 0-.893-.235-1.27-.612-.324-.324-.542-.723-.598-1.095-.018-.122-.043-.422.122-.587.111-.112.285-.136.41-.136.406 0 .893.235 1.27.613.324.324.542.723.598 1.095.019.121.044.422-.121.587-.112.112-.285.135-.41.135z" fill="#3F2D20"/><path d="M32.117 6.863zm-11.793-4.79zm15.09 10.807zm-4.737-7.436zM28.783 4.16zm7.099 8.797zM29.42 4.538zm8.538 9.819zm-.248-.312zM27.3 3.435zM37.632 13.96zm-.602-.509zm-.712-.361zm.372.163zM2.356 17.761zm.193.376zm-.361-.878zm.617 1.259zm-.704-1.704zm1.354 2.351zm34.708-4.483a3.486 3.486 0 00-1.692-.437h-.022a1.036 1.036 0 01-1.036-1.036c0-.11-.003-.22-.009-.33a3.501 3.501 0 00-.314-.015l-.01-.001h-.012a1.036 1.036 0 01-1.036-1.036c0-1.8-.69-3.485-1.89-4.934-2.516-2.102-6.26-3.439-10.437-3.439-7.558 0-13.707 4.376-13.707 9.755 0 .572-.464 1.036-1.036 1.036a3.516 3.516 0 00-3.51 3.513c0 .614.159 1.146.436 1.649.503.278 1.08.393 1.694.393H35.09c1.936 0 3.51-1.531 3.51-3.468a3.32 3.32 0 00-.437-1.65zm-22.61 1.561c-.48.48-1.145.743-1.876.743-.964 0-1.96-.445-2.735-1.22-.638-.639-1.058-1.438-1.18-2.25-.14-.915.117-1.776.704-2.363.478-.478 1.144-.742 1.875-.742.963 0 1.96.444 2.735 1.22.638.639 1.058 1.438 1.18 2.25.14.914-.117 1.775-.704 2.362zm4.783-6.254c-2.017 0-3.597-1.284-3.597-2.925 0-1.64 1.58-2.924 3.597-2.924s3.596 1.284 3.596 2.924-1.58 2.925-3.596 2.925zm10.574 3.527c-.122.812-.542 1.61-1.18 2.25-.775.775-1.772 1.22-2.735 1.22-.73 0-1.397-.264-1.875-.743-.587-.587-.844-1.448-.705-2.363.123-.812.542-1.61 1.181-2.25.775-.775 1.771-1.22 2.735-1.22.73 0 1.396.264 1.875.743.586.587.843 1.448.704 2.363zM3.872 19.442zM21.415 2.106zm1.666.164zm1.02.182zM2.851 18.58zM24.9 2.633zm-2.63-.46zm4.305.977z" fill="#EF8829"/><path d="M21.381 6.47zm-.468-.184c.038.01.072.022.107.033-.035-.012-.07-.024-.107-.033zm.731.376zm-.481-.295c.037.014.07.03.105.047-.035-.016-.068-.032-.105-.047zm.541.357zm.097.139zm-2.287.901c-.018-.007-.038-.014-.055-.022l.055.022zm-.461-.271l.04.034-.04-.034zm.212.152c-.015-.008-.027-.017-.041-.026l.04.026zm2.575-.683a2.294 2.294 0 00-.725-.116c-.86 0-1.525.458-1.525.852 0 .032.006.064.015.097.216.073.462.122.73.122.86 0 1.526-.458 1.526-.852 0-.034-.011-.069-.02-.103zm-2.988.272a.52.52 0 01-.015-.036l.015.036zm1.784-1.002c.034.004.065.012.097.018-.032-.006-.064-.014-.097-.018zm-1.704 1.136l-.013-.019.013.02zm9.934 5.539zm-.04-.153c.007.016.011.034.016.05-.005-.017-.009-.034-.015-.05zm-1.084.976c-.324.323-.542.722-.598 1.094a1.374 1.374 0 00-.009.08c.374-.047.795-.268 1.13-.603.323-.324.541-.723.598-1.095l.008-.08c-.374.047-.794.268-1.129.603zm1.13-.616c.002-.02.002-.038.002-.06 0 .02 0 .042-.002.06zM12.88 14.667zm-.268-.186zm.773.394zm-.269-.091zm1.094-.594c-.049-.315-.218-.647-.464-.94a1.255 1.255 0 00-.285-.036c-.126 0-.299.024-.41.136-.166.165-.14.465-.122.587.047.314.211.679.456.97.1.024.199.07.292.07a.62.62 0 00.41-.168c.166-.164.14-.497.122-.618z" fill="#CE593F"/><path d="M7.935 23.382l2.385 9.731-1.683-9.73h-.702zm9.088 14.468h2.127V23.383h-3.655l1.528 14.469zm4.33-14.468v14.469h2.296l1.527-14.469h-3.823zm8.58 0H27.26L25.732 37.85h1.679l2.761-15.907-.239 1.44zm3.708 0h-1.606L29.513 37.85h.553l3.914-15.907-.339 1.44zm-20.373-1.439l.145 1.44H10.74l2.52 14.467h1.68l-1.673-15.907z" fill="#84BD93"/><path d="M36.053 10.876c-.298-2.859-1.937-5.5-4.692-7.515C28.4 1.193 24.48 0 20.324 0 16.168 0 12.25 1.193 9.288 3.36c-2.756 2.018-4.396 4.66-4.693 7.52A5.592 5.592 0 000 16.376a5.593 5.593 0 004.535 5.486l4.252 17.349c.114.463.53.789 1.006.789H30.88c.477 0 .892-.326 1.005-.79l4.253-17.348a5.593 5.593 0 004.535-5.486 5.592 5.592 0 00-4.619-5.5zM14.94 37.927h-1.679L10.5 21.962h2.768l1.672 15.965zm4.36-15.965v15.965h-2.277L15.35 21.962h3.95zm2.071 0h3.95L23.65 37.927h-2.278V21.962zm6.033 0h2.768l-2.761 15.965h-1.68l1.673-15.965zm-19.006 0l2.761 15.965h-.554L6.692 21.962h1.706zm21.114 15.965l2.762-15.965h1.706l-3.914 15.965h-.554zM35.09 19.89H5.582a3.516 3.516 0 01-3.51-3.513 3.516 3.516 0 013.51-3.513c.571 0 1.035-.463 1.035-1.036 0-5.379 6.15-9.754 13.707-9.754 7.559 0 13.708 4.375 13.708 9.754 0 .572.464 1.037 1.036 1.037l.011-.001h.011a3.516 3.516 0 013.51 3.513 3.516 3.516 0 01-3.51 3.513z" fill="#3F2D20"/></svg>